<?xml version="1.0" encoding="UTF-8"?>
<svg id="Layer_1" data-name="Layer 1" xmlns="http://www.w3.org/2000/svg" viewBox="0 0 782.36 368.93">
  <defs>
    <style>
      .cls-1 {
        fill: #ed8eb5;
      }

      .cls-2 {
        fill: #333;
      }

      .cls-3 {
        fill: #77caba;
      }

      .cls-4 {
        fill: #e9756a;
      }

      .cls-5 {
        fill: #fff;
      }

      .cls-6 {
        fill: #fdda75;
      }

      .cls-7 {
        fill: none;
        stroke-linecap: round;
        stroke-linejoin: round;
        stroke-width: 7.08px;
      }

      .cls-7, .cls-8 {
        stroke: #010101;
      }

      .cls-9 {
        fill: #9dd8e5;
      }

      .cls-8 {
        stroke-miterlimit: 10;
        stroke-width: 5.9px;
      }

      .cls-8, .cls-10 {
        fill: #010101;
      }

      .cls-11 {
        fill: #e6b3d2;
      }
    </style>
  </defs>
  <g>
    <g>
      <path class="cls-6" d="M667.13,217.62c-20.36,0-37.41-1.59-50.65-4.73-13.85-3.28-25.02-8.98-33.19-16.94-8.2-7.99-13.94-18.61-17.05-31.55-2.95-12.28-4.45-27.59-4.45-45.5,0-20.38,1.79-37.87,5.32-51.98,3.66-14.64,9.92-26.68,18.6-35.77,8.71-9.12,20.29-15.72,34.42-19.61,13.6-3.74,30.47-5.64,50.14-5.64,18.51,0,34.59,1.75,47.78,5.19,13.72,3.58,25.09,9.76,33.8,18.36,8.71,8.61,15.1,20.16,18.98,34.34,3.74,13.67,5.64,30.96,5.64,51.39,0,19.09-1.75,35.27-5.2,48.09-3.61,13.4-9.9,24.33-18.69,32.49-8.73,8.1-20.36,13.87-34.55,17.13-13.61,3.13-30.73,4.72-50.89,4.72ZM653.64,65.08c-1.11,0-2.42.21-3.88,2.75-1.66,2.88-2.5,6.99-2.5,12.2s.84,9.61,2.5,12.49c1.46,2.54,2.77,2.75,3.88,2.75.76,0,1.9,0,3.23-2.46,1.5-2.79,2.29-7.2,2.29-12.78s-.77-9.66-2.29-12.49c-1.33-2.47-2.47-2.47-3.23-2.47Z"/>
      <path class="cls-10" d="M670.27,11.81c18.09,0,33.52,1.67,46.28,5,12.76,3.33,23.14,8.95,31.14,16.85,8,7.9,13.81,18.47,17.43,31.7,3.62,13.23,5.43,29.84,5.43,49.83,0,18.66-1.67,34.18-5,46.55-3.33,12.38-9,22.28-17,29.7-8,7.43-18.62,12.66-31.86,15.71-13.24,3.05-29.76,4.57-49.57,4.57s-36.43-1.52-49.29-4.57c-12.86-3.05-23-8.18-30.43-15.42-7.43-7.24-12.57-16.8-15.43-28.7-2.86-11.9-4.29-26.61-4.29-44.12,0-19.99,1.71-36.84,5.14-50.55,3.43-13.71,9.14-24.75,17.14-33.13,8-8.38,18.57-14.37,31.72-17.99,13.14-3.62,29.33-5.43,48.57-5.43M653.64,101.18c3.62,0,6.43-1.86,8.43-5.57,2-3.71,3-8.91,3-15.58s-1-11.57-3-15.28c-2-3.71-4.81-5.57-8.43-5.57-3.81,0-6.81,1.91-9,5.72-2.19,3.81-3.29,8.86-3.29,15.14s1.09,11.62,3.29,15.43c2.19,3.81,5.19,5.71,9,5.71M670.27,0c-20.2,0-37.6,1.97-51.71,5.85-15.18,4.18-27.67,11.32-37.12,21.22-9.4,9.84-16.15,22.76-20.06,38.42-3.65,14.58-5.49,32.55-5.49,53.41,0,18.38,1.55,34.15,4.61,46.88,3.37,14.04,9.65,25.62,18.67,34.4,8.95,8.71,21.04,14.92,35.95,18.45,13.69,3.24,31.19,4.89,52.01,4.89s38.17-1.64,52.22-4.87c15.21-3.5,27.74-9.74,37.24-18.56,9.62-8.93,16.47-20.8,20.37-35.29,3.59-13.32,5.41-30.01,5.41-49.62,0-20.95-1.97-38.76-5.85-52.94-4.16-15.2-11.06-27.64-20.52-36.98-9.45-9.34-21.72-16.03-36.46-19.87-13.68-3.57-30.25-5.38-49.27-5.38h0ZM653.22,82.19c-.04-.66-.05-1.38-.05-2.15s.02-1.44.05-2.09c.03.65.05,1.35.05,2.09s-.02,1.48-.05,2.15h0Z"/>
    </g>
    <g>
      <path class="cls-11" d="M64.04,218.32c-10.55,0-19.44-.45-26.44-1.33-7.67-.97-13.65-2.77-18.31-5.49-5.08-2.97-8.67-7.1-10.69-12.26-1.81-4.64-2.7-10.17-2.7-16.91,0-6.19.55-11.02,1.69-14.75,1.16-3.82,2.74-7.05,4.69-9.61,1.96-2.58,4.15-4.61,6.49-6.04,1.54-.94,3.03-1.95,4.41-2.98.9-.68,1.61-1.47,2.17-2.42.1-.18.62-1.19.62-4.03v-58.45c0-4.94-.98-6.15-.99-6.16-1.74-1.49-3.74-2.96-5.89-4.34-3.13-2-5.97-5.04-8.44-9.03-2.66-4.3-3.89-10.84-3.89-20.59,0-7.51.93-13.51,2.85-18.36,2.1-5.31,5.71-9.55,10.73-12.61,4.61-2.81,10.64-4.72,17.94-5.68,6.74-.89,15.21-1.34,25.17-1.34s18.43.45,25.17,1.34c7.29.96,13.33,2.88,17.94,5.68,5.03,3.06,8.65,7.37,10.75,12.8,1.91,4.94,2.84,10.97,2.84,18.46,0,6.19-.55,11.01-1.69,14.75-1.17,3.84-2.58,6.87-4.34,9.24-1.89,2.56-4.14,4.51-6.7,5.79-1.36.68-2.56,1.43-3.58,2.23-.67.53-1.3,1.34-1.86,2.41-.17.33-.75,1.71-.75,5.41v58.45c0,2.84.51,3.85.61,4.02.56.95,1.27,1.74,2.17,2.41,1.39,1.04,2.87,2.04,4.42,2.99,2.34,1.43,4.52,3.46,6.49,6.04,1.96,2.57,3.54,5.87,4.7,9.8,1.13,3.83,1.68,8.59,1.68,14.56,0,6.63-.91,12.32-2.7,16.91-2.02,5.17-5.62,9.29-10.69,12.26-4.65,2.72-10.54,4.52-18,5.49-6.81.89-15.52,1.34-25.88,1.34Z"/>
      <path class="cls-10" d="M63.47,11.85c9.76,0,17.89.43,24.4,1.29,6.51.86,11.72,2.48,15.64,4.87,3.92,2.39,6.69,5.68,8.31,9.88,1.63,4.2,2.44,9.65,2.44,16.33,0,5.54-.48,9.89-1.43,13.04-.96,3.15-2.1,5.64-3.44,7.45-1.34,1.82-2.87,3.15-4.59,4.01-1.72.86-3.25,1.82-4.59,2.87-1.34,1.05-2.48,2.48-3.44,4.3-.96,1.82-1.43,4.54-1.43,8.16v58.45c0,3.06.47,5.4,1.43,7.02.96,1.63,2.2,3.01,3.73,4.15,1.53,1.15,3.15,2.25,4.87,3.3,1.72,1.05,3.34,2.58,4.88,4.58,1.53,2.01,2.77,4.63,3.72,7.88.96,3.25,1.43,7.54,1.43,12.89,0,5.93-.77,10.84-2.29,14.76-1.53,3.92-4.25,7.02-8.17,9.31-3.92,2.29-9.18,3.87-15.78,4.73-6.6.86-14.98,1.29-25.12,1.29s-18.9-.43-25.7-1.29c-6.79-.86-12.15-2.43-16.07-4.73-3.92-2.29-6.64-5.4-8.17-9.31-1.53-3.92-2.29-8.83-2.29-14.76,0-5.54.47-9.88,1.43-13.03.96-3.15,2.2-5.73,3.73-7.74,1.53-2.01,3.15-3.53,4.87-4.58,1.72-1.05,3.34-2.15,4.88-3.3,1.53-1.14,2.77-2.53,3.72-4.15.96-1.63,1.43-3.97,1.43-7.02v-58.45c0-5.35-1-8.88-3.01-10.6-2.01-1.72-4.21-3.34-6.59-4.87-2.39-1.53-4.59-3.92-6.59-7.16-2.01-3.25-3.01-9.07-3.01-17.48,0-6.68.81-12.08,2.44-16.19,1.63-4.11,4.39-7.35,8.31-9.74,3.92-2.39,9.13-4.01,15.64-4.87,6.5-.86,14.64-1.29,24.4-1.29M63.47.04c-10.22,0-18.95.47-25.95,1.39-8.23,1.09-14.85,3.21-20.24,6.49-6.14,3.74-10.57,8.95-13.15,15.48-2.2,5.55-3.27,12.27-3.27,20.54,0,10.89,1.52,18.42,4.77,23.69,2.93,4.75,6.39,8.42,10.28,10.9,1.42.91,2.76,1.86,4,2.84.08.55.16,1.42.16,2.67v58.45c0,.67-.04,1.13-.07,1.4-.1.11-.21.21-.35.31-1.24.93-2.57,1.83-3.96,2.67-2.97,1.81-5.7,4.34-8.11,7.51-2.37,3.1-4.27,6.96-5.63,11.46-1.31,4.3-1.94,9.69-1.94,16.47,0,7.49,1.02,13.72,3.11,19.06,2.51,6.43,6.95,11.55,13.2,15.2,5.36,3.14,12.08,5.18,20.55,6.25,7.34.93,16.23,1.38,27.18,1.38s19.48-.45,26.65-1.39c8.26-1.08,14.88-3.12,20.22-6.25,6.25-3.66,10.69-8.78,13.2-15.2,2.09-5.36,3.11-11.59,3.11-19.06,0-6.54-.63-11.85-1.92-16.23-1.36-4.62-3.27-8.56-5.66-11.7-2.42-3.18-5.15-5.7-8.12-7.51-1.39-.85-2.71-1.74-3.94-2.66-.14-.11-.26-.21-.36-.32-.04-.28-.07-.73-.07-1.4v-58.45c0-1.7.15-2.59.22-2.92.1-.16.17-.26.2-.3.69-.53,1.54-1.05,2.5-1.54,3.4-1.7,6.37-4.25,8.82-7.57,2.15-2.91,3.87-6.53,5.23-11.03,1.31-4.3,1.94-9.69,1.94-16.47,0-8.23-1.06-14.97-3.23-20.59-2.58-6.67-7.02-11.96-13.19-15.71-5.39-3.28-12.01-5.41-20.24-6.49C82.42.51,73.68.04,63.47.04h0Z"/>
    </g>
    <g>
      <g>
        <path class="cls-3" d="M232.54,218.22c-5.46,0-10.63-1.44-15.36-4.28-4.32-2.59-8.3-5.91-11.83-9.87-3.33-3.73-6.45-7.82-9.28-12.17-2.73-4.19-5.21-8.08-7.37-11.57-1.02-1.63-1.98-3.13-2.89-4.49-.05,1.83-.09,4.11-.09,6.96,0,6.83-.3,12.22-.92,16.47-.75,5.1-2.32,8.98-4.79,11.87-2.59,3.02-6.26,5.03-10.91,5.96-3.76.75-8.59,1.12-14.76,1.12-5.63,0-10.07-.37-13.57-1.14-4.55-1-8.24-3.51-10.7-7.27-2.17-3.31-3.5-7.78-4.08-13.67-.48-4.92-.92-11.72-1.31-20.21v-.13c-.2-8.56-.34-18.27-.44-28.86-.1-10.58-.1-21.45,0-32.32.09-10.59.23-21.35.41-31.98.18-10.41.35-19.73.52-27.94v-.12c.39-9.24.93-16.82,1.62-22.51.75-6.21,1.94-11.04,3.64-14.77,2.09-4.58,5.24-7.72,9.38-9.35,3.4-1.33,7.58-1.98,12.76-1.98h26.95c6.32,0,11.17,1.32,14.83,4.03,3.08,2.29,5.6,4.82,7.49,7.53.54.77,1.05,1.53,1.55,2.28.28-1.78.78-3.4,1.51-4.84,1.38-2.76,3.69-4.9,6.87-6.32,2.55-1.15,5.81-1.87,9.95-2.22,3.58-.3,8.08-.45,13.38-.45h63.04c7.33,0,13.18.69,17.89,2.11,5.45,1.65,9.81,4.92,12.97,9.7,2.9,4.41,4.84,10.26,5.93,17.88.97,6.78,1.76,15.7,2.34,26.52.38,5.15.67,11.24.87,18.11.19,6.76.34,13.83.43,21l.28,21.05c.1,7.17.14,13.19.14,18.41,0,14.39-.34,26.44-1.02,35.79-.71,9.88-2.08,17.56-4.19,23.47-2.34,6.55-5.67,11.29-9.88,14.1-4.12,2.75-9.32,4.14-15.45,4.14h-75.93Z"/>
        <path class="cls-10" d="M298.15,11.85c6.68,0,12.08.62,16.19,1.86,4.1,1.24,7.35,3.68,9.74,7.3,2.39,3.63,4.06,8.78,5.01,15.47.96,6.68,1.72,15.37,2.29,26.06.38,5.16.66,11.12.86,17.9.19,6.78.33,13.75.43,20.91.09,7.16.19,14.18.28,21.05.09,6.87.14,12.98.14,18.33,0,14.32-.33,26.11-1,35.37-.67,9.26-1.96,16.56-3.87,21.91-1.91,5.35-4.44,9.07-7.59,11.17-3.15,2.1-7.21,3.15-12.18,3.15h-75.93c-4.4,0-8.5-1.14-12.32-3.44-3.82-2.29-7.31-5.2-10.46-8.74-3.15-3.53-6.06-7.35-8.74-11.46s-5.11-7.93-7.31-11.46c-2.2-3.53-4.16-6.44-5.88-8.74-1.72-2.29-3.34-3.44-4.87-3.44-1.34,0-2.2,1.24-2.58,3.73-.38,2.48-.57,7.16-.57,14.04,0,6.5-.29,11.7-.86,15.62-.58,3.92-1.72,6.87-3.44,8.88-1.72,2.01-4.25,3.34-7.59,4.01-3.34.67-7.87,1-13.6,1-5.15,0-9.26-.33-12.31-1-3.05-.67-5.39-2.24-7.01-4.73-1.62-2.48-2.67-6.16-3.15-11.02-.48-4.87-.91-11.5-1.29-19.9-.19-8.59-.34-18.18-.43-28.78-.1-10.59-.1-21.33,0-32.22.09-10.88.23-21.53.41-31.93.18-10.41.35-19.71.52-27.92.38-9.16.91-16.51,1.58-22.05.67-5.54,1.72-9.88,3.15-13.03,1.43-3.15,3.49-5.25,6.17-6.3,2.67-1.05,6.21-1.58,10.61-1.58h26.95c4.97,0,8.74.96,11.32,2.87,2.58,1.91,4.63,3.96,6.16,6.16,1.53,2.2,2.86,4.25,4.01,6.16,1.15,1.91,2.58,2.86,4.3,2.86,2.48,0,3.72-2.2,3.72-6.59,0-2.29.38-4.2,1.15-5.73.76-1.53,2.1-2.72,4.01-3.58,1.91-.86,4.59-1.43,8.02-1.72,3.44-.29,7.73-.43,12.89-.43h63.04M298.15.05h-63.04c-5.54,0-10.08.15-13.88.47-4.82.4-8.7,1.29-11.88,2.72-2.95,1.33-5.44,3.18-7.36,5.46-1.26-1.21-2.64-2.36-4.13-3.46C193.23,1.79,187.06.05,179.53.05h-26.95c-5.94,0-10.82.78-14.92,2.39-3.86,1.51-9.18,4.89-12.6,12.4-1.96,4.29-3.31,9.69-4.13,16.51-.71,5.85-1.26,13.58-1.65,22.97v.12s0,.12,0,.12c-.16,7.89-.33,17.04-.52,27.96-.18,10.69-.32,21.47-.41,32.03-.1,10.9-.1,21.81,0,32.43.09,10.6.24,20.34.43,28.94v.13s0,.13,0,.13c.4,8.72.83,15.43,1.33,20.52.67,6.86,2.32,12.21,5.03,16.34,3.31,5.07,8.28,8.46,14.37,9.79,3.92.86,8.78,1.28,14.84,1.28,6.56,0,11.77-.4,15.91-1.23,5.98-1.2,10.77-3.86,14.24-7.91,3.18-3.71,5.25-8.71,6.15-14.84.22-1.51.4-3.15.55-4.92,2.97,4.56,6.25,8.86,9.76,12.78,3.92,4.4,8.36,8.1,13.19,11,5.66,3.4,11.85,5.12,18.4,5.12h75.93c7.31,0,13.61-1.73,18.72-5.13,5.3-3.53,9.39-9.25,12.17-17.02,2.29-6.43,3.77-14.61,4.53-25.03.69-9.5,1.03-21.68,1.03-36.22,0-5.26-.05-11.3-.14-18.49l-.07-5.03c-.07-5.26-.14-10.6-.22-16.02-.1-7.19-.24-14.29-.44-21.09-.2-6.93-.49-13.09-.88-18.32-.6-11.11-1.38-19.94-2.39-26.98-1.22-8.5-3.45-15.13-6.83-20.28-3.89-5.9-9.48-10.08-16.18-12.12-5.29-1.6-11.7-2.37-19.61-2.37h0ZM197.2,24.04s0,0,0,0h0Z"/>
      </g>
      <g>
        <ellipse class="cls-8" cx="304.23" cy="86.33" rx="34.24" ry="34.84"/>
        <ellipse class="cls-5" cx="304.23" cy="86.39" rx="30.56" ry="31.09"/>
        <ellipse class="cls-8" cx="228.94" cy="86.33" rx="34.24" ry="34.84"/>
        <ellipse class="cls-5" cx="228.94" cy="86.33" rx="30.56" ry="31.09"/>
        <circle class="cls-10" cx="242.27" cy="89.69" r="16.83"/>
        <circle class="cls-10" cx="317.59" cy="89.69" r="16.83"/>
        <path class="cls-7" d="M261.95,85.17c3.09-2.86,6.18-2.86,9.28,0"/>
      </g>
      <path class="cls-7" d="M194.7,84.46l-55.86-7.52s-8.52-2-9.62,12.83"/>
      <path class="cls-10" d="M275.91,183.44c21.96,0,40.2-15.97,43.71-36.94.65-3.86-2.3-7.39-6.22-7.39h-74.99c-3.92,0-6.87,3.53-6.22,7.39,3.52,20.96,21.75,36.94,43.71,36.94Z"/>
      <path class="cls-5" d="M250.08,139.11c.2,6.08,5.19,10.96,11.32,10.96,4.21,0,7.87-2.29,9.83-5.7,1.95,3.4,5.62,5.7,9.83,5.7,6.13,0,11.12-4.87,11.32-10.96h-42.29Z"/>
      <path class="cls-1" d="M256.95,179.18c5.75,2.73,12.18,4.25,18.96,4.25,11.04,0,21.13-4.03,28.89-10.71-4.56-7.71-12.96-12.88-22.56-12.88-12.1,0-22.27,8.2-25.29,19.34Z"/>
      <g>
        <circle class="cls-4" cx="185.17" cy="137.86" r="2.5"/>
        <circle class="cls-4" cx="190.58" cy="130.09" r="2.5"/>
        <circle class="cls-4" cx="195.89" cy="137.86" r="2.5"/>
      </g>
    </g>
    <g>
      <g>
        <path class="cls-9" d="M530.92,218.32c-6.17,0-10.99-.37-14.75-1.12-4.65-.93-8.32-2.93-10.91-5.96-2.48-2.89-4.04-6.77-4.79-11.86-.62-4.25-.92-9.63-.92-16.47,0-2.85-.03-5.13-.09-6.95-.91,1.36-1.87,2.85-2.89,4.48-2.16,3.48-4.64,7.37-7.37,11.56-2.83,4.34-5.95,8.44-9.28,12.17-3.53,3.96-7.5,7.28-11.82,9.87-4.73,2.84-9.89,4.28-15.36,4.28h-75.89c-6.12,0-11.32-1.39-15.44-4.14-4.21-2.81-7.54-7.55-9.88-14.09-2.11-5.91-3.48-13.58-4.19-23.46-.68-9.35-1.02-21.39-1.02-35.78,0-5.24.05-11.26.14-18.4l.28-21.04c.1-7.17.24-14.23.43-20.99.2-6.87.49-12.96.87-18.1.58-10.8,1.37-19.72,2.34-26.5,1.09-7.62,3.03-13.46,5.92-17.87,3.16-4.79,7.52-8.06,12.96-9.71,4.72-1.42,10.57-2.11,17.89-2.11h63.01c5.3,0,9.8.15,13.38.45,4.14.35,7.39,1.07,9.95,2.22,3.18,1.43,5.49,3.56,6.87,6.33.72,1.44,1.22,3.05,1.5,4.83.49-.74,1.01-1.5,1.54-2.27,1.89-2.72,4.41-5.25,7.49-7.53,3.66-2.71,8.51-4.03,14.83-4.03h26.94c5.18,0,9.36.65,12.76,1.99,4.14,1.62,7.29,4.77,9.38,9.34,1.7,3.73,2.89,8.56,3.64,14.77.69,5.69,1.23,13.27,1.62,22.5v.12c.17,8.21.34,17.52.52,27.93.18,10.67.32,21.42.41,31.97.1,10.86.1,21.73,0,32.31-.09,10.57-.24,20.27-.43,28.84v.13c-.39,8.49-.83,15.28-1.31,20.21-.58,5.89-1.92,10.36-4.09,13.68-2.44,3.75-6.14,6.26-10.69,7.25-3.5.77-7.94,1.14-13.57,1.14Z"/>
        <path class="cls-10" d="M532.68,12.04c4.4,0,7.93.53,10.6,1.58,2.68,1.05,4.73,3.15,6.16,6.3,1.43,3.15,2.48,7.49,3.15,13.02.67,5.54,1.2,12.88,1.58,22.04.17,8.2.34,17.51.52,27.91s.32,21.04.41,31.92c.1,10.88.1,21.61,0,32.2-.09,10.59-.24,20.18-.43,28.76-.38,8.4-.81,15.03-1.29,19.9-.48,4.87-1.53,8.54-3.15,11.02-1.62,2.48-3.96,4.06-7.01,4.72-3.05.67-7.16,1-12.31,1-5.72,0-10.25-.33-13.59-1-3.34-.67-5.87-2-7.59-4.01-1.72-2-2.86-4.96-3.43-8.88-.57-3.92-.86-9.12-.86-15.61,0-6.87-.19-11.55-.57-14.03-.38-2.48-1.24-3.73-2.58-3.73-1.53,0-3.15,1.15-4.87,3.44-1.72,2.29-3.67,5.2-5.87,8.73-2.19,3.53-4.63,7.35-7.3,11.46-2.67,4.11-5.58,7.92-8.73,11.46-3.15,3.53-6.63,6.44-10.45,8.74-3.82,2.29-7.92,3.43-12.32,3.43h-75.89c-4.96,0-9.02-1.05-12.17-3.15-3.15-2.1-5.68-5.82-7.59-11.16-1.91-5.35-3.2-12.64-3.87-21.9-.67-9.25-1-21.04-1-35.35,0-5.34.05-11.45.14-18.32.09-6.87.19-13.88.28-21.04.1-7.16.24-14.12.43-20.9.19-6.77.48-12.74.86-17.89.57-10.68,1.34-19.36,2.29-26.05.96-6.68,2.63-11.83,5.01-15.46,2.39-3.62,5.64-6.06,9.74-7.3,4.11-1.24,9.5-1.86,16.18-1.86h63.01c5.15,0,9.45.14,12.88.43,3.44.29,6.11.86,8.02,1.72,1.91.86,3.25,2.05,4.01,3.58.77,1.53,1.15,3.44,1.15,5.73,0,4.39,1.24,6.58,3.72,6.58,1.72,0,3.15-.95,4.3-2.86,1.15-1.91,2.48-3.96,4.01-6.16,1.53-2.19,3.58-4.25,6.16-6.16,2.58-1.91,6.35-2.87,11.31-2.87h26.94M532.68.23h-26.94c-7.52,0-13.7,1.75-18.34,5.19-1.48,1.1-2.86,2.25-4.12,3.46-1.91-2.27-4.4-4.13-7.36-5.45-3.17-1.42-7.06-2.31-11.88-2.72-3.8-.32-8.33-.47-13.87-.47h-63.01c-7.91,0-14.32.77-19.59,2.36-6.71,2.03-12.31,6.22-16.18,12.1-3.39,5.16-5.63,11.79-6.84,20.29-1.01,7.04-1.79,15.86-2.39,26.96-.38,5.23-.68,11.38-.88,18.31-.19,6.8-.34,13.89-.43,21.08-.07,5.41-.14,10.73-.21,15.97l-.07,5.06c-.1,7.18-.14,13.23-.14,18.48,0,14.53.35,26.71,1.03,36.2.75,10.42,2.23,18.6,4.52,25.02,2.78,7.77,6.87,13.5,12.17,17.02,5.11,3.4,11.4,5.13,18.71,5.13h75.89c6.55,0,12.74-1.72,18.39-5.12,4.83-2.9,9.27-6.6,13.19-11,3.49-3.92,6.77-8.21,9.74-12.76.15,1.76.33,3.39.55,4.89.9,6.15,2.97,11.14,6.15,14.85,3.47,4.05,8.26,6.71,14.24,7.91,4.14.83,9.35,1.23,15.91,1.23,6.06,0,10.91-.42,14.83-1.28,6.09-1.33,11.06-4.72,14.37-9.8,2.7-4.12,4.34-9.46,5.01-16.32.5-5.09.94-11.8,1.33-20.51v-.13s0-.13,0-.13c.19-8.6.34-18.33.43-28.93.1-10.61.1-21.51,0-32.41-.09-10.56-.23-21.33-.41-32.02-.19-10.93-.36-20.07-.52-27.95v-.12s0-.12,0-.12c-.39-9.39-.95-17.12-1.65-22.96-.82-6.81-2.17-12.21-4.13-16.5-3.42-7.5-8.74-10.88-12.6-12.39-4.1-1.61-8.98-2.39-14.91-2.39h0Z"/>
      </g>
      <g>
        <ellipse class="cls-5" cx="394.89" cy="83.03" rx="30.56" ry="31.09"/>
        <circle class="cls-10" cx="383.64" cy="83.09" r="16.83"/>
        <ellipse class="cls-5" cx="464.41" cy="83.03" rx="30.56" ry="31.09"/>
        <circle class="cls-10" cx="453.17" cy="83.09" r="16.83"/>
        <ellipse class="cls-10" cx="448.59" cy="156.35" rx="24.2" ry="28.76"/>
        <path class="cls-5" d="M448.59,127.59c-4.06,0-7.89,1.19-11.25,3.29.02,6.19,5.05,11.21,11.25,11.21s11.23-5.02,11.25-11.21c-3.36-2.1-7.19-3.29-11.25-3.29Z"/>
        <path class="cls-1" d="M472.78,156.63c0-1.64-.12-3.25-.34-4.82-12.63.18-22.82,10.48-22.82,23.15,0,3.64.84,7.08,2.34,10.15,11.76-1.96,20.82-13.96,20.82-28.48Z"/>
        <path class="cls-7" d="M447.72,45.31c18.76-9.3,34.41-5.72,47.19,9.76"/>
        <path class="cls-7" d="M411.53,45.31c-18.76-9.3-34.41-5.72-47.19,9.76"/>
      </g>
    </g>
  </g>
  <g>
    <path class="cls-2" d="M161.37,328.77c0-1.97-.06-5.27-.16-9.9-.11-4.63-.19-9.84-.25-15.64-.06-5.8-.09-11.78-.09-17.95s.06-11.84.19-17.03c.12-6.17.46-11.13,1.02-14.9.55-3.76,1.6-6.69,3.14-8.79,1.54-2.1,3.73-3.49,6.56-4.16,2.84-.68,6.59-1.02,11.28-1.02,4.43,0,8.04.31,10.81.93,2.77.62,4.93,1.85,6.47,3.7,1.54,1.85,2.56,4.41,3.05,7.68.49,3.27.74,7.62.74,13.05s.31,9.26.92,11.48c.62,2.22,1.91,3.33,3.88,3.33,2.47,0,4.19-1.6,5.18-4.81.98-3.21,1.48-7.77,1.48-13.7,0-4.32.25-7.87.74-10.65.49-2.78,1.36-5,2.59-6.66,1.23-1.66,2.81-2.81,4.72-3.43,1.91-.62,4.22-.93,6.94-.93h36.07c4.69,0,8.6.28,11.75.83,3.14.55,5.64,1.54,7.49,2.96,1.85,1.42,3.17,3.26,3.98,5.54.8,2.28,1.2,5.14,1.2,8.59,0,7.39-1.32,13.55-3.96,18.48-2.64,4.93-5.59,8.99-8.86,12.19-3.27,3.2-6.23,5.7-8.89,7.48-2.65,1.79-3.98,3.23-3.98,4.34,0,.37.22.68.65.92s1.33.37,2.68.37c7.04,0,12.47,3.74,16.29,11.21,3.83,7.47,5.74,18.07,5.74,31.78,0,5.07-.34,9.2-1.02,12.42-.68,3.21-1.85,5.75-3.52,7.6-1.67,1.85-3.95,3.12-6.85,3.8-2.9.68-6.63,1.02-11.19,1.02-8.02,0-13.6-1.02-16.74-3.06-3.15-2.04-4.72-5.78-4.72-11.22,0-6.93-2.13-12.49-6.39-16.69-4.26-4.2-9.9-6.31-16.94-6.31-4.94,0-8.43,1.3-10.46,3.9-2.04,2.6-3.12,7.11-3.24,13.54,0,3.71-.37,6.83-1.11,9.37-.74,2.54-1.97,4.58-3.7,6.12-1.73,1.55-4.07,2.66-7.04,3.34-2.96.68-6.73,1.02-11.29,1.02-5.06,0-9.17-.49-12.31-1.48-3.15-.99-5.62-2.93-7.4-5.83-1.79-2.9-3.09-6.97-3.89-12.21-.8-5.24-1.33-12.12-1.57-20.63Z"/>
    <path class="cls-2" d="M329.53,239.39c6.3,0,11.56.28,15.76.83,4.2.55,7.57,1.6,10.1,3.15,2.53,1.54,4.32,3.67,5.37,6.38,1.05,2.71,1.57,6.23,1.57,10.55,0,3.58-.31,6.39-.93,8.42-.62,2.04-1.36,3.64-2.22,4.81-.86,1.17-1.85,2.04-2.96,2.59-1.11.55-2.1,1.17-2.96,1.85-.86.68-1.6,1.6-2.22,2.77-.62,1.17-.92,2.93-.92,5.27v37.75c0,1.97.31,3.49.92,4.54s1.42,1.94,2.41,2.68c.99.74,2.04,1.45,3.15,2.13s2.16,1.66,3.15,2.96c.99,1.3,1.79,2.99,2.41,5.09s.93,4.87.93,8.32c0,3.83-.49,7-1.48,9.53-.99,2.53-2.75,4.53-5.28,6.01-2.53,1.48-5.93,2.5-10.19,3.05-4.26.55-9.67.83-16.23.83s-12.21-.28-16.6-.83c-4.39-.55-7.85-1.57-10.38-3.05-2.53-1.48-4.29-3.49-5.28-6.01-.99-2.53-1.48-5.71-1.48-9.53,0-3.58.31-6.38.92-8.42.62-2.03,1.42-3.7,2.41-5,.99-1.3,2.04-2.28,3.15-2.96s2.16-1.39,3.15-2.13c.99-.74,1.79-1.63,2.41-2.68s.93-2.56.93-4.54v-37.75c0-3.45-.65-5.74-1.94-6.85-1.3-1.11-2.72-2.16-4.26-3.15-1.54-.99-2.96-2.53-4.26-4.63-1.3-2.1-1.94-5.86-1.94-11.29,0-4.32.52-7.8,1.57-10.45,1.05-2.65,2.84-4.75,5.37-6.29,2.53-1.54,5.9-2.59,10.1-3.15,4.2-.55,9.45-.83,15.76-.83Z"/>
    <path class="cls-2" d="M367.8,269.93c0-5.43.68-10.08,2.04-13.97,1.36-3.89,3.64-7.06,6.85-9.53,3.21-2.47,7.43-4.26,12.68-5.37,5.24-1.11,11.75-1.66,19.52-1.66,13.44,0,25.44,1.57,35.98,4.72,10.54,3.15,19.49,7.68,26.83,13.6,7.34,5.92,12.92,13.17,16.74,21.74,3.82,8.57,5.74,18.29,5.74,29.15,0,19.86-6.69,34.88-20.08,45.06-13.39,10.18-33.53,15.27-60.42,15.27-14.56,0-25.33-1.48-32.3-4.44-6.97-2.96-10.46-7.4-10.46-13.32,0-2.22.4-3.98,1.2-5.27.8-1.3,1.76-2.59,2.87-3.89s2.19-2.77,3.24-4.44c1.05-1.66,1.82-3.98,2.32-6.94.38-2.47.64-5.55.77-9.25.13-3.7.19-7.77.19-12.21,0-1.36-.06-3.08-.19-5.18-.13-2.1-.53-4.41-1.21-6.94-.68-2.53-1.76-5.21-3.24-8.05-1.48-2.84-3.58-5.61-6.29-8.33-.74-.74-1.39-1.73-1.95-2.96-.55-1.23-.83-3.82-.83-7.77ZM431.81,288.57c-2.22,0-3.8,1.05-4.73,3.15-.93,2.1-1.39,5.62-1.39,10.55,0,5.43.52,9.6,1.57,12.5,1.05,2.9,2.56,4.35,4.54,4.35,2.22,0,3.98-1.7,5.28-5.09,1.3-3.4,1.95-7.44,1.95-12.13s-.65-8.08-1.95-10.18c-1.3-2.1-3.06-3.15-5.28-3.15Z"/>
    <path class="cls-2" d="M496.44,262.15c.26-11.38,2.81-18.64,15.43-19.92,17.98-3.28,36.24-2.18,54.46-2.37,6.02,0,12.04.01,18.07.02,9.14.31,20.2-1.54,27.29,5.59,9.69,10.62.41,25.47-5.9,35.42-5.8,8.55-11.4,17.32-18.13,25.18-2.55,2.94-5.3,5.64-8.04,8.39-1.54,1.56-3.44,3.57-3.01,5.91,1.66,5.37,8.83-.39,11.64-2.01,5.29-3.56,10.75-7.45,17.2-8.47,8.08-1.43,15.96,3.69,15.98,12.3.25,7.6-.13,15.26-.15,22.95-.09,5.98-.51,12.87-5.36,17.04-8.92,6.66-21.13,6.3-31.79,6.66-19.02.02-38.15.17-57.19.07-5.47-.09-10.93-.38-16.34-1.27-3.33-.56-6.85-1.39-9.36-3.58-3.39-2.9-4.07-7.64-4.49-12.04-.54-5.61-.98-11.51,1.13-16.86,1.18-3.08,3.02-5.88,5.07-8.47,9.56-11.74,21.26-21.54,32.74-31.16,1.3-1.38,7.05-4.62,4.32-6.6-.57-.27-1.38-.17-2.15.12-2.19.91-4.27,2.12-6.4,3.17-8.91,4.94-22.3,9.17-30.16.85-6.56-7.52-4.83-21.2-4.85-30.7v-.21Z"/>
  </g>
</svg>